<svg xmlns="http://www.w3.org/2000/svg" viewBox="0 0 148 50"><defs><style>.cls-1{fill:#222222;}</style></defs><title>logo_top</title><g id="Слой_2" data-name="Слой 2"><g id="Слой_3" data-name="Слой 3"><polygon class="cls-1" points="74.7 19.7 74.7 16.9 63 16.9 63 33.5 75 33.5 75 30.7 66.2 30.7 66.2 26.2 74.1 26.2 74.1 23.4 66.2 23.4 66.2 19.7 74.7 19.7"/><path class="cls-1" d="M127.1,24a6.11,6.11,0,0,1-1.4.7,9,9,0,0,1-1.8.2,3.16,3.16,0,0,1-1.9-.4,1.67,1.67,0,0,1-.8-1.1,15,15,0,0,1-.1-2.5v-4h-3.2v5.6c0,1.9.5,3.3,1.5,4.1a6.55,6.55,0,0,0,4,1.2,5.54,5.54,0,0,0,1.8-.2,14.58,14.58,0,0,0,1.9-.7v6.7h3.1V16.9h-3.1Z"/><path class="cls-1" d="M108.5,16.9l-6.1,16.5h3.3l1.3-3.8h6.3l1.4,3.8h3.5l-6.3-16.5Zm-.5,10,2.1-6.1,2.2,6.1Z"/><path class="cls-1" d="M86.5,17.2a26.87,26.87,0,0,0-3.8-.2H77.6V33.5h3.2V27.3h2.1a26.31,26.31,0,0,0,3.3-.2,4,4,0,0,0,1.6-.8,4.83,4.83,0,0,0,1.8-4.2,5.27,5.27,0,0,0-.9-3.2A3.37,3.37,0,0,0,86.5,17.2ZM86,23.4a2.72,2.72,0,0,1-1,.8,12.14,12.14,0,0,1-2.5.2H80.8V19.7h1.5a12.89,12.89,0,0,1,2.3.1,2.39,2.39,0,0,1,1.3.7,2.46,2.46,0,0,1,.5,1.5A2.3,2.3,0,0,1,86,23.4Z"/><path class="cls-1" d="M59.5,26.4a4.27,4.27,0,0,0-2.4-1.6A5.35,5.35,0,0,0,59,23.1a3.94,3.94,0,0,0,.6-2.1,3.6,3.6,0,0,0-1.4-3A5.72,5.72,0,0,0,54,16.7c-3.1,0-5,1.4-5.6,4.1l3,.7A2.56,2.56,0,0,1,54,19.4a2.44,2.44,0,0,1,1.8.6,2,2,0,0,1,.6,1.5,2.06,2.06,0,0,1-.8,1.8,3.07,3.07,0,0,1-2.2.7h-.3v2.5h.8a3.71,3.71,0,0,1,2.3.6,2.09,2.09,0,0,1,.8,1.6,1.8,1.8,0,0,1-.7,1.5,2.92,2.92,0,0,1-2.2.7,3.21,3.21,0,0,1-1.8-.4,3.13,3.13,0,0,1-1.2-1.9l-2.9,1a5.29,5.29,0,0,0,2.1,3.2,7.51,7.51,0,0,0,3.9.9c2,0,3.5-.4,4.5-1.4a4.54,4.54,0,0,0,1.5-3.5A3.28,3.28,0,0,0,59.5,26.4Z"/><path class="cls-1" d="M39.8,16.7A6.49,6.49,0,0,0,35.5,18a6.06,6.06,0,0,0-2.1,3.5l3.1.8a3.74,3.74,0,0,1,1.2-2,3.23,3.23,0,0,1,2.2-.7,3.42,3.42,0,0,1,2.7,1.2,6.72,6.72,0,0,1,1.2,3.1H38.9v2.8h4.9A5.6,5.6,0,0,1,42.5,30a3.25,3.25,0,0,1-2.4,1,3.78,3.78,0,0,1-2.3-.8,4.85,4.85,0,0,1-1.2-2.7l-3.2,1c.8,3.5,3,5.3,6.6,5.3a6.53,6.53,0,0,0,3.8-1,7.06,7.06,0,0,0,2.5-2.9,10.63,10.63,0,0,0,.9-4.5,9.38,9.38,0,0,0-1.9-6.2A6.7,6.7,0,0,0,39.8,16.7Z"/><polygon class="cls-1" points="98.7 33.5 98.7 19.7 103.3 19.7 103.3 16.9 90.9 16.9 90.9 19.7 95.5 19.7 95.5 33.5 98.7 33.5"/><path class="cls-1" d="M27.6,33.5h3.1V16.9h-11V29.1a2.21,2.21,0,0,1-.3,1.4,2.21,2.21,0,0,1-1.4.3h-.7v2.6a18.15,18.15,0,0,0,2,.1,3.44,3.44,0,0,0,2.4-.7,2.83,2.83,0,0,0,.9-1.8,35.87,35.87,0,0,0,.2-4.2v-7h4.7V33.5Z"/><rect class="cls-1" x="12" y="48" width="4" height="2"/><rect class="cls-1" x="18" y="48" width="4" height="2"/><rect class="cls-1" y="14" width="2" height="4"/><rect class="cls-1" y="20" width="2" height="4"/><rect class="cls-1" y="8" width="2" height="4"/><rect class="cls-1" y="38" width="2" height="4"/><rect class="cls-1" y="26" width="2" height="4"/><polygon class="cls-1" points="2 44 0 44 0 48 0 50 4 50 4 48 2 48 2 44"/><rect class="cls-1" x="6" y="48" width="4" height="2"/><rect class="cls-1" x="6" width="4" height="2"/><rect class="cls-1" x="12" width="4" height="2"/><rect class="cls-1" y="32" width="2" height="4"/><rect class="cls-1" x="102" width="4" height="2"/><rect class="cls-1" x="84" width="4" height="2"/><rect class="cls-1" x="24" y="48" width="4" height="2"/><rect class="cls-1" x="72" width="4" height="2"/><rect class="cls-1" x="78" width="4" height="2"/><rect class="cls-1" x="108" width="4" height="2"/><rect class="cls-1" x="126" width="4" height="2"/><rect class="cls-1" x="114" width="4" height="2"/><rect class="cls-1" x="120" width="4" height="2"/><rect class="cls-1" x="30" width="4" height="2"/><rect class="cls-1" x="36" width="4" height="2"/><rect class="cls-1" x="24" width="4" height="2"/><polygon class="cls-1" points="2 2 4 2 4 0 0 0 0 2 0 6 2 6 2 2"/><rect class="cls-1" x="18" width="4" height="2"/><rect class="cls-1" x="66" width="4" height="2"/><rect class="cls-1" x="42" width="4" height="2"/><rect class="cls-1" x="60" width="4" height="2"/><rect class="cls-1" x="54" width="4" height="2"/><rect class="cls-1" x="96" width="4" height="2"/><rect class="cls-1" x="138" y="48" width="4" height="2"/><rect class="cls-1" x="138" width="4" height="2"/><rect class="cls-1" x="144" y="48" width="4" height="2"/><rect class="cls-1" x="132" y="48" width="4" height="2"/><rect class="cls-1" x="146" y="44" width="2" height="4"/><rect class="cls-1" x="132" width="4" height="2"/><rect class="cls-1" x="120" y="48" width="4" height="2"/><rect class="cls-1" x="126" y="48" width="4" height="2"/><rect class="cls-1" x="146" y="32" width="2" height="4"/><rect class="cls-1" x="146" y="38" width="2" height="4"/><rect class="cls-1" x="146" y="14" width="2" height="4"/><polygon class="cls-1" points="144 0 144 2 146 2 146 6 148 6 148 0 144 0"/><rect class="cls-1" x="146" y="8" width="2" height="4"/><rect class="cls-1" x="114" y="48" width="4" height="2"/><rect class="cls-1" x="146" y="26" width="2" height="4"/><rect class="cls-1" x="146" y="20" width="2" height="4"/><rect class="cls-1" x="48" y="48" width="4" height="2"/><rect class="cls-1" x="54" y="48" width="4" height="2"/><rect class="cls-1" x="30" y="48" width="4" height="2"/><rect class="cls-1" x="60" y="48" width="4" height="2"/><rect class="cls-1" x="36" y="48" width="4" height="2"/><rect class="cls-1" x="48" width="4" height="2"/><rect class="cls-1" x="108" y="48" width="4" height="2"/><rect class="cls-1" x="42" y="48" width="4" height="2"/><rect class="cls-1" x="66" y="48" width="4" height="2"/><rect class="cls-1" x="90" y="48" width="4" height="2"/><rect class="cls-1" x="96" y="48" width="4" height="2"/><rect class="cls-1" x="102" y="48" width="4" height="2"/><rect class="cls-1" x="84" y="48" width="4" height="2"/><rect class="cls-1" x="90" width="4" height="2"/><rect class="cls-1" x="78" y="48" width="4" height="2"/><rect class="cls-1" x="72" y="48" width="4" height="2"/></g></g></svg>